<svg xmlns="http://www.w3.org/2000/svg" viewBox="0 0 240 240" role="img" aria-label="Reflections Productions concept 2 mark: spotlight sun circle with palm silhouette and water slices">
  <rect width="240" height="240" fill="#0C1414"/>
  <defs>
    <clipPath id="c2mark-clip"><circle cx="120" cy="118" r="84"/></clipPath>
  </defs>
  <g clip-path="url(#c2mark-clip)">
    <rect x="36" y="34" width="168" height="96" fill="#FF6B4A"/>
    <rect x="36" y="138" width="168" height="11" fill="#3FA796"/>
    <rect x="36" y="157" width="168" height="9" fill="#3FA796" opacity="0.68"/>
    <rect x="36" y="174" width="168" height="8" fill="#3FA796" opacity="0.44"/>
    <rect x="36" y="190" width="168" height="6" fill="#3FA796" opacity="0.24"/>
    <g fill="#0C1414">
      <path d="M112 132 C112 106 114 88 122 68 L132 72 C124 90 122 108 123 132 Z"/>
      <path d="M127 70 C107 58 86 58 70 70 C88 66 108 68 127 78 Z"/>
      <path d="M127 70 C115 51 97 43 78 45 C96 50 112 58 124 74 Z"/>
      <path d="M127 70 C128 50 137 36 153 28 C141 42 134 56 133 72 Z"/>
      <path d="M127 70 C145 56 165 54 181 62 C163 62 145 68 131 78 Z"/>
      <path d="M127 70 C143 68 159 76 169 90 C155 80 141 78 129 82 Z"/>
      <circle cx="127" cy="74" r="5"/>
    </g>
  </g>
</svg>
