<svg xmlns="http://www.w3.org/2000/svg" viewBox="0 0 240 240">
  <defs><clipPath id="fc"><circle cx="120" cy="120" r="116"/></clipPath></defs>
  <g clip-path="url(#fc)">
    <rect width="240" height="240" fill="#0C1414"/>
    <rect x="10" y="14" width="220" height="122" fill="#FF6B4A"/>
    <rect x="10" y="146" width="220" height="14" fill="#3FA796"/>
    <rect x="10" y="170" width="220" height="11" fill="#3FA796" opacity="0.68"/>
    <rect x="10" y="191" width="220" height="10" fill="#3FA796" opacity="0.44"/>
    <rect x="10" y="211" width="220" height="8" fill="#3FA796" opacity="0.24"/>
    <g fill="#0C1414" transform="translate(-8,-16) scale(1.12)">
      <path d="M112 136 C112 106 114 88 122 68 L132 72 C124 90 122 108 123 136 Z"/>
      <path d="M127 70 C107 58 86 58 70 70 C88 66 108 68 127 78 Z"/>
      <path d="M127 70 C115 51 97 43 78 45 C96 50 112 58 124 74 Z"/>
      <path d="M127 70 C128 50 137 36 153 28 C141 42 134 56 133 72 Z"/>
      <path d="M127 70 C145 56 165 54 181 62 C163 62 145 68 131 78 Z"/>
      <path d="M127 70 C143 68 159 76 169 90 C155 80 141 78 129 82 Z"/>
      <circle cx="127" cy="74" r="5"/>
    </g>
  </g>
</svg>
